# xmcd
#
# Track frame offsets:
#	150
#	16586
#	33859
#	49512
#	66348
#	81640
#	104212
#	121179
#	135960
#	153954
#	175903
#	195836
#	220606
#	242099
#	259726
#	279812
#	300533
#	317255
#	341981
#
# Disc length: 4797 seconds
#
# Revision: 0
# Processed by: cddbd v1.5.2PL0 Copyright (c) Steve Scherf et al.
# Submitted via: audiograbber 1.83.01
#
DISCID=f712bb13
DTITLE=Various Artist - 100 R&B Classics The Anthems
DYEAR=2008
DGENRE=R&B
TTITLE0=SHABBA RANKS - MR LOVERMAN
TTITLE1=WAYNE WONDER - FOR MY LOVE
TTITLE2=NATTY - COLD TOWN
TTITLE3=RUPEE - TEMPTED TO TOUCH
TTITLE4=ELEPHANT MAN - PON DE RIVER PON DE BANK
TTITLE5=GLAMMA KID - TABOO
TTITLE6=CLARA - GOODIES
TTITLE7=BUSTA RHYMES - PUT YOUR HANDS WHERE MY EYES COULD SEE
TTITLE8=DEL THA FUNKEE HOMOSAPIEN - MISTADOBALINA
TTITLE9=EN VOGUE - DON'T LET GO
TTITLE10=TWEET - MY PLACE
TTITLE11=COOLIO - FANTASTIC VOYAGE
TTITLE12=TEVIN CAMPBELL - CAN WE TALK
TTITLE13=SHOLA AMA - YOU'R THE ONE I LOVE
TTITLE14=FABOLOUS - INTO YOU
TTITLE15=KANO - TYPICAL ME
TTITLE16=ARTFUL DODGER - PLEASE DON'T TURN ME ON
TTITLE17=STICKY - BOOO
TTITLE18=ARTFUL DODGER - WOMAN TROUBLE
EXTD=
EXTT0=
EXTT1=
EXTT2=
EXTT3=
EXTT4=
EXTT5=
EXTT6=
EXTT7=
EXTT8=
EXTT9=
EXTT10=
EXTT11=
EXTT12=
EXTT13=
EXTT14=
EXTT15=
EXTT16=
EXTT17=
EXTT18=
PLAYORDER=
